<svg width="9" height="11" viewBox="0 0 9 11" fill="none" xmlns="http://www.w3.org/2000/svg">
<path d="M1.9954 9.748C2.1754 9.832 2.3854 9.874 2.6254 9.874C2.9974 9.874 3.3034 9.754 3.5434 9.514C3.7954 9.262 3.9214 8.926 3.9214 8.506C3.9214 8.122 3.8314 7.72 3.6514 7.3C3.4714 6.868 3.2134 6.376 2.8774 5.824C2.4814 5.188 2.1994 4.69 2.0314 4.33C1.8754 3.97 1.7974 3.568 1.7974 3.124C1.7974 2.32 2.1034 1.666 2.7154 1.162C3.3274 0.657999 4.2154 0.405999 5.3794 0.405999C6.2674 0.405999 7.0054 0.567999 7.5934 0.891999C8.1814 1.204 8.4754 1.732 8.4754 2.476C8.4754 2.884 8.3614 3.256 8.1334 3.592C7.9054 3.916 7.5934 4.078 7.1974 4.078C6.8374 4.078 6.5554 3.94 6.3514 3.664C6.1474 3.376 6.0454 3.01 6.0454 2.566C6.0454 2.218 6.0994 1.894 6.2074 1.594C6.3274 1.282 6.4654 1.042 6.6214 0.873999C6.5254 0.825999 6.3754 0.801999 6.1714 0.801999C5.7514 0.801999 5.4334 0.927999 5.2174 1.18C5.0014 1.42 4.8934 1.774 4.8934 2.242C4.8934 2.542 4.9594 2.836 5.0914 3.124C5.2234 3.4 5.4394 3.79 5.7394 4.294L5.9554 4.654C6.3514 5.338 6.6274 5.896 6.7834 6.328C6.9514 6.748 7.0354 7.156 7.0354 7.552C7.0354 8.056 6.8974 8.512 6.6214 8.92C6.3454 9.328 5.9374 9.652 5.3974 9.892C4.8574 10.132 4.2034 10.252 3.4354 10.252C2.4634 10.252 1.6654 10.078 1.0414 9.73C0.417398 9.37 0.105398 8.776 0.105398 7.948C0.105398 7.492 0.219398 7.114 0.447398 6.814C0.663398 6.502 0.957398 6.346 1.3294 6.346C1.6774 6.346 1.9594 6.49 2.1754 6.778C2.3914 7.066 2.4994 7.45 2.4994 7.93C2.4994 8.266 2.4514 8.566 2.3554 8.83C2.2714 9.094 2.1514 9.4 1.9954 9.748Z" fill="#3185FC"/>
</svg>
