<svg width="64" height="16" viewBox="0 0 64 16" fill="none" xmlns="http://www.w3.org/2000/svg">
<path d="M1.92802 14.748C2.10802 14.832 2.31802 14.874 2.55802 14.874C2.93002 14.874 3.23602 14.754 3.47602 14.514C3.72802 14.262 3.85402 13.926 3.85402 13.506C3.85402 13.122 3.76402 12.72 3.58402 12.3C3.40402 11.868 3.14602 11.376 2.81002 10.824C2.41402 10.188 2.13202 9.69 1.96402 9.33C1.80802 8.97 1.73002 8.568 1.73002 8.124C1.73002 7.32 2.03602 6.666 2.64802 6.162C3.26002 5.658 4.14802 5.406 5.31202 5.406C6.20002 5.406 6.93802 5.568 7.52602 5.892C8.11402 6.204 8.40802 6.732 8.40802 7.476C8.40802 7.884 8.29402 8.256 8.06602 8.592C7.83802 8.916 7.52602 9.078 7.13002 9.078C6.77002 9.078 6.48802 8.94 6.28402 8.664C6.08002 8.376 5.97802 8.01 5.97802 7.566C5.97802 7.218 6.03202 6.894 6.14002 6.594C6.26002 6.282 6.39802 6.042 6.55402 5.874C6.45802 5.826 6.30802 5.802 6.10402 5.802C5.68402 5.802 5.36602 5.928 5.15002 6.18C4.93402 6.42 4.82602 6.774 4.82602 7.242C4.82602 7.542 4.89202 7.836 5.02402 8.124C5.15602 8.4 5.37202 8.79 5.67202 9.294L5.88802 9.654C6.28402 10.338 6.56002 10.896 6.71602 11.328C6.88402 11.748 6.96802 12.156 6.96802 12.552C6.96802 13.056 6.83002 13.512 6.55402 13.92C6.27802 14.328 5.87002 14.652 5.33002 14.892C4.79002 15.132 4.13602 15.252 3.36802 15.252C2.39602 15.252 1.59802 15.078 0.974016 14.73C0.350016 14.37 0.0380156 13.776 0.0380156 12.948C0.0380156 12.492 0.152016 12.114 0.380016 11.814C0.596016 11.502 0.890016 11.346 1.26202 11.346C1.61002 11.346 1.89202 11.49 2.10802 11.778C2.32402 12.066 2.43202 12.45 2.43202 12.93C2.43202 13.266 2.38402 13.566 2.28802 13.83C2.20402 14.094 2.08402 14.4 1.92802 14.748ZM10.4232 13.47C10.3872 13.59 10.3692 13.704 10.3692 13.812C10.3692 14.088 10.4952 14.226 10.7472 14.226C10.9872 14.226 11.2272 14.1 11.4672 13.848C11.7072 13.584 11.8992 13.254 12.0432 12.858L12.3312 12.084H12.6732L12.3312 13.074C12.0912 13.77 11.7252 14.31 11.2332 14.694C10.7412 15.066 10.1532 15.252 9.46922 15.252C8.79722 15.252 8.29322 15.078 7.95722 14.73C7.63322 14.382 7.47122 13.908 7.47122 13.308C7.47122 12.996 7.53122 12.612 7.65122 12.156L9.41522 6.018H7.77722L7.86722 5.658H9.52322L10.2792 3.012C11.5392 3 12.6312 2.916 13.5552 2.76L12.7092 5.658H14.5092L14.4552 6.018H12.6012L10.4232 13.47ZM12.1314 12.192C12.1314 11.172 12.3654 10.14 12.8334 9.096C13.3014 8.04 14.0034 7.164 14.9394 6.468C15.8874 5.76 17.0394 5.406 18.3954 5.406C19.4394 5.406 20.2314 5.67 20.7714 6.198C21.3234 6.726 21.5994 7.482 21.5994 8.466C21.5994 9.486 21.3654 10.524 20.8974 11.58C20.4294 12.624 19.7214 13.5 18.7734 14.208C17.8374 14.904 16.6914 15.252 15.3354 15.252C14.2914 15.252 13.4934 14.988 12.9414 14.46C12.4014 13.932 12.1314 13.176 12.1314 12.192ZM18.3054 5.766C17.9694 5.766 17.5434 6.216 17.0274 7.116C16.5114 8.016 16.0614 9.108 15.6774 10.392C15.3054 11.664 15.1194 12.828 15.1194 13.884C15.1194 14.256 15.1434 14.52 15.1914 14.676C15.2514 14.82 15.3414 14.892 15.4614 14.892C15.7854 14.892 16.1994 14.46 16.7034 13.596C17.2194 12.72 17.6634 11.652 18.0354 10.392C18.4194 9.132 18.6114 7.938 18.6114 6.81C18.6114 6.39 18.5814 6.114 18.5214 5.982C18.4734 5.838 18.4014 5.766 18.3054 5.766ZM28.301 5.406C28.841 5.406 29.267 5.574 29.579 5.91C29.891 6.234 30.047 6.648 30.047 7.152C30.047 7.764 29.855 8.292 29.471 8.736C29.087 9.18 28.601 9.402 28.013 9.402C27.569 9.402 27.233 9.288 27.005 9.06C26.777 8.832 26.663 8.496 26.663 8.052C26.663 7.524 26.855 7.044 27.239 6.612C27.623 6.18 28.085 5.916 28.625 5.82C28.481 5.784 28.397 5.766 28.373 5.766C27.989 5.766 27.641 5.844 27.329 6C27.017 6.156 26.669 6.54 26.285 7.152C25.913 7.764 25.517 8.7 25.097 9.96L23.783 15H20.597L22.793 7.188C22.841 7.008 22.865 6.852 22.865 6.72C22.865 6.528 22.787 6.432 22.631 6.432C22.439 6.432 22.265 6.516 22.109 6.684C21.953 6.852 21.797 7.146 21.641 7.566L21.227 8.664H20.885L21.389 7.26C21.833 6.024 22.727 5.406 24.071 5.406C24.647 5.406 25.067 5.562 25.331 5.874C25.595 6.186 25.727 6.588 25.727 7.08C25.727 7.248 25.721 7.374 25.709 7.458C26.057 6.702 26.429 6.174 26.825 5.874C27.233 5.562 27.725 5.406 28.301 5.406ZM35.7834 5.406C36.3234 5.406 36.7494 5.574 37.0614 5.91C37.3734 6.234 37.5294 6.648 37.5294 7.152C37.5294 7.764 37.3374 8.292 36.9534 8.736C36.5694 9.18 36.0834 9.402 35.4954 9.402C35.0514 9.402 34.7154 9.288 34.4874 9.06C34.2594 8.832 34.1454 8.496 34.1454 8.052C34.1454 7.524 34.3374 7.044 34.7214 6.612C35.1054 6.18 35.5674 5.916 36.1074 5.82C35.9634 5.784 35.8794 5.766 35.8554 5.766C35.4714 5.766 35.1234 5.844 34.8114 6C34.4994 6.156 34.1514 6.54 33.7674 7.152C33.3954 7.764 32.9994 8.7 32.5794 9.96L31.2654 15H28.0794L30.2754 7.188C30.3234 7.008 30.3474 6.852 30.3474 6.72C30.3474 6.528 30.2694 6.432 30.1134 6.432C29.9214 6.432 29.7474 6.516 29.5914 6.684C29.4354 6.852 29.2794 7.146 29.1234 7.566L28.7094 8.664H28.3674L28.8714 7.26C29.3154 6.024 30.2094 5.406 31.5534 5.406C32.1294 5.406 32.5494 5.562 32.8134 5.874C33.0774 6.186 33.2094 6.588 33.2094 7.08C33.2094 7.248 33.2034 7.374 33.1914 7.458C33.5394 6.702 33.9114 6.174 34.3074 5.874C34.7154 5.562 35.2074 5.406 35.7834 5.406ZM44.386 6.99C44.386 7.998 43.822 8.88 42.694 9.636C41.578 10.38 40.246 10.932 38.698 11.292C38.662 11.616 38.644 11.922 38.644 12.21C38.644 12.87 38.77 13.326 39.022 13.578C39.274 13.83 39.646 13.956 40.138 13.956C40.438 13.956 40.822 13.854 41.29 13.65C41.77 13.446 42.226 13.128 42.658 12.696L42.946 12.84C42.49 13.524 41.872 14.1 41.092 14.568C40.312 15.024 39.412 15.252 38.392 15.252C37.504 15.252 36.76 15.03 36.16 14.586C35.572 14.142 35.278 13.518 35.278 12.714C35.278 11.538 35.578 10.386 36.178 9.258C36.79 8.118 37.618 7.194 38.662 6.486C39.718 5.766 40.882 5.406 42.154 5.406C42.826 5.406 43.366 5.544 43.774 5.82C44.182 6.084 44.386 6.474 44.386 6.99ZM41.758 5.748C41.422 5.748 41.044 6.006 40.624 6.522C40.216 7.038 39.838 7.704 39.49 8.52C39.142 9.336 38.896 10.152 38.752 10.968C39.388 10.596 39.94 10.188 40.408 9.744C40.912 9.252 41.308 8.706 41.596 8.106C41.896 7.506 42.046 6.87 42.046 6.198C42.046 5.898 41.95 5.748 41.758 5.748ZM52.1397 12.084H52.4817L52.0317 13.398C51.5997 14.634 50.7417 15.252 49.4577 15.252C48.7257 15.252 48.2037 15.042 47.8917 14.622C47.6877 14.322 47.5857 13.956 47.5857 13.524C47.5857 13.392 47.5917 13.29 47.6037 13.218C47.3157 13.95 46.9437 14.472 46.4877 14.784C46.0317 15.096 45.4917 15.252 44.8677 15.252C44.1237 15.252 43.5657 15.06 43.1937 14.676C42.8217 14.292 42.6357 13.734 42.6357 13.002C42.6357 11.874 42.9357 10.716 43.5357 9.528C44.1477 8.34 44.9037 7.356 45.8037 6.576C46.7157 5.796 47.5857 5.406 48.4137 5.406C49.0977 5.406 49.4697 5.748 49.5297 6.432L49.7637 5.676C50.9277 5.664 52.0137 5.574 53.0217 5.406L50.5917 13.47C50.5437 13.626 50.5197 13.77 50.5197 13.902C50.5197 14.118 50.6157 14.226 50.8077 14.226C51.1557 14.226 51.4737 13.848 51.7617 13.092L52.1397 12.084ZM46.4337 14.028C46.6857 14.028 46.9377 13.836 47.1897 13.452C47.4417 13.068 47.7297 12.378 48.0537 11.382L49.3497 7.062C49.3617 7.002 49.3677 6.912 49.3677 6.792C49.3677 6.456 49.2537 6.288 49.0257 6.288C48.6897 6.288 48.2757 6.636 47.7837 7.332C47.3037 8.028 46.8897 8.904 46.5417 9.96C46.1937 11.016 46.0197 12.054 46.0197 13.074C46.0197 13.422 46.0497 13.668 46.1097 13.812C46.1697 13.956 46.2777 14.028 46.4337 14.028ZM61.5663 12.084H61.9083L61.4583 13.398C61.0263 14.634 60.1683 15.252 58.8843 15.252C58.1163 15.252 57.5763 15.024 57.2643 14.568C57.0843 14.292 56.9943 13.95 56.9943 13.542C56.9943 13.35 57.0243 13.092 57.0843 12.768C56.7123 13.62 56.2923 14.25 55.8243 14.658C55.3563 15.054 54.7623 15.252 54.0423 15.252C53.3703 15.252 52.8123 15.036 52.3683 14.604C51.9363 14.172 51.7203 13.512 51.7203 12.624C51.7203 11.676 51.9603 10.638 52.4403 9.51C52.9323 8.37 53.6403 7.404 54.5643 6.612C55.5003 5.808 56.5863 5.406 57.8223 5.406C58.3983 5.406 58.7643 5.556 58.9203 5.856L59.6763 2.994C59.7363 2.778 59.7663 2.61 59.7663 2.49C59.7663 2.25 59.6703 2.076 59.4783 1.968C59.2983 1.86 58.9863 1.806 58.5423 1.806L58.6683 1.428C59.6283 1.416 60.4983 1.35 61.2783 1.23C62.0583 1.11 62.8143 0.929999 63.5463 0.69L60.0183 13.47C59.9583 13.614 59.9283 13.752 59.9283 13.884C59.9283 14.112 60.0303 14.226 60.2343 14.226C60.5823 14.226 60.9003 13.848 61.1883 13.092L61.5663 12.084ZM55.5183 14.136C55.7823 14.136 56.1183 13.824 56.5263 13.2C56.9343 12.576 57.3303 11.634 57.7143 10.374L58.8123 6.27C58.7643 6.114 58.6983 6 58.6143 5.928C58.5303 5.856 58.4043 5.82 58.2363 5.82C57.8643 5.82 57.4263 6.18 56.9223 6.9C56.4183 7.608 55.9863 8.526 55.6263 9.654C55.2663 10.77 55.0863 11.922 55.0863 13.11C55.0863 13.47 55.1163 13.734 55.1763 13.902C55.2363 14.058 55.3503 14.136 55.5183 14.136Z" fill="#B7D5FF"/>
</svg>
